<svg width="89" height="48" viewBox="0 0 89 48" fill="none" xmlns="http://www.w3.org/2000/svg">
<g filter="url(#filter0_d_1_23)">
<path d="M24.666 11.998C24.666 12.9681 24.513 13.8796 24.207 14.7324C23.901 15.5853 23.4648 16.3275 22.8984 16.959C22.3385 17.5905 21.6647 18.0885 20.877 18.4531C20.0892 18.8177 19.2135 19 18.25 19H13.5918C12.6217 19 11.7396 18.8177 10.9453 18.4531C10.151 18.0885 9.4707 17.5905 8.9043 16.959C8.3444 16.3275 7.91146 15.5853 7.60547 14.7324C7.29948 13.8796 7.14648 12.9681 7.14648 11.998C7.14648 11.0345 7.29948 10.1296 7.60547 9.2832C7.91146 8.43034 8.3444 7.68815 8.9043 7.05664C9.4707 6.41862 10.151 5.91732 10.9453 5.55273C11.7396 5.18164 12.6217 4.99609 13.5918 4.99609H18.25C19.2135 4.99609 20.0892 5.18164 20.877 5.55273C21.6647 5.91732 22.3385 6.41862 22.8984 7.05664C23.4648 7.68815 23.901 8.43034 24.207 9.2832C24.513 10.1296 24.666 11.0345 24.666 11.998ZM22.6641 11.998C22.6641 11.3079 22.5632 10.6602 22.3613 10.0547C22.1595 9.44922 21.8665 8.92188 21.4824 8.47266C21.1048 8.01693 20.6426 7.65885 20.0957 7.39844C19.5553 7.13151 18.9401 6.99805 18.25 6.99805H13.5918C12.9017 6.99805 12.2799 7.13151 11.7266 7.39844C11.1797 7.65885 10.7142 8.01693 10.3301 8.47266C9.95247 8.92188 9.65951 9.44922 9.45117 10.0547C9.24935 10.6602 9.14844 11.3079 9.14844 11.998C9.14844 12.6882 9.24935 13.3392 9.45117 13.9512C9.65951 14.5566 9.95247 15.0872 10.3301 15.543C10.7142 15.9922 11.1797 16.347 11.7266 16.6074C12.2799 16.8678 12.9017 16.998 13.5918 16.998H18.25C18.9401 16.998 19.5553 16.8678 20.0957 16.6074C20.6426 16.347 21.1048 15.9922 21.4824 15.543C21.8665 15.0872 22.1595 14.5566 22.3613 13.9512C22.5632 13.3392 22.6641 12.6882 22.6641 11.998ZM43.7285 11.998C43.7285 12.9681 43.5723 13.8796 43.2598 14.7324C42.9538 15.5853 42.5176 16.3275 41.9512 16.959C41.3848 17.5905 40.7044 18.0885 39.9102 18.4531C39.1224 18.8177 38.2467 19 37.2832 19H30.2227V16.998H37.2832C37.9733 16.998 38.5918 16.8678 39.1387 16.6074C39.6921 16.347 40.1576 15.9922 40.5352 15.543C40.9193 15.0872 41.2122 14.5566 41.4141 13.9512C41.6224 13.3392 41.7266 12.6882 41.7266 11.998C41.7266 11.3079 41.6224 10.6602 41.4141 10.0547C41.2122 9.44922 40.9193 8.92188 40.5352 8.47266C40.1576 8.01693 39.6921 7.65885 39.1387 7.39844C38.5918 7.13151 37.9733 6.99805 37.2832 6.99805H29.2266V19H27.2246V4.99609H37.2832C38.2467 4.99609 39.1224 5.18164 39.9102 5.55273C40.7044 5.91732 41.3848 6.41862 41.9512 7.05664C42.5176 7.68815 42.9538 8.43034 43.2598 9.2832C43.5723 10.1296 43.7285 11.0345 43.7285 11.998ZM48.2891 19H46.2871V4.99609H47.2832C47.9342 4.99609 48.6243 5.08073 49.3535 5.25C50.0892 5.41927 50.8379 5.66341 51.5996 5.98242C52.3613 6.30143 53.1198 6.6888 53.875 7.14453C54.6367 7.59375 55.3724 8.10482 56.082 8.67773C56.7917 9.25065 57.459 9.87565 58.084 10.5527C58.709 11.2233 59.2689 11.9395 59.7637 12.7012V4.99609H61.7656V19H59.7637C59.7637 17.9714 59.5846 16.9818 59.2266 16.0312C58.8685 15.0742 58.39 14.1725 57.791 13.3262C57.1921 12.4798 56.502 11.7018 55.7207 10.9922C54.9395 10.276 54.1224 9.64779 53.2695 9.10742C52.4232 8.56706 51.5703 8.12435 50.7109 7.7793C49.8516 7.42773 49.0443 7.19336 48.2891 7.07617V19ZM81.8535 11.998C81.8535 12.9681 81.7005 13.8796 81.3945 14.7324C81.0885 15.5853 80.6523 16.3275 80.0859 16.959C79.526 17.5905 78.8522 18.0885 78.0645 18.4531C77.2767 18.8177 76.401 19 75.4375 19H70.7793C69.8092 19 68.9271 18.8177 68.1328 18.4531C67.3385 18.0885 66.6582 17.5905 66.0918 16.959C65.5319 16.3275 65.099 15.5853 64.793 14.7324C64.487 13.8796 64.334 12.9681 64.334 11.998C64.334 11.0345 64.487 10.1296 64.793 9.2832C65.099 8.43034 65.5319 7.68815 66.0918 7.05664C66.6582 6.41862 67.3385 5.91732 68.1328 5.55273C68.9271 5.18164 69.8092 4.99609 70.7793 4.99609H75.4375C76.401 4.99609 77.2767 5.18164 78.0645 5.55273C78.8522 5.91732 79.526 6.41862 80.0859 7.05664C80.6523 7.68815 81.0885 8.43034 81.3945 9.2832C81.7005 10.1296 81.8535 11.0345 81.8535 11.998ZM79.8516 11.998C79.8516 11.3079 79.7507 10.6602 79.5488 10.0547C79.347 9.44922 79.054 8.92188 78.6699 8.47266C78.2923 8.01693 77.8301 7.65885 77.2832 7.39844C76.7428 7.13151 76.1276 6.99805 75.4375 6.99805H70.7793C70.0892 6.99805 69.4674 7.13151 68.9141 7.39844C68.3672 7.65885 67.9017 8.01693 67.5176 8.47266C67.14 8.92188 66.847 9.44922 66.6387 10.0547C66.4368 10.6602 66.3359 11.3079 66.3359 11.998C66.3359 12.6882 66.4368 13.3392 66.6387 13.9512C66.847 14.5566 67.14 15.0872 67.5176 15.543C67.9017 15.9922 68.3672 16.347 68.9141 16.6074C69.4674 16.8678 70.0892 16.998 70.7793 16.998H75.4375C76.1276 16.998 76.7428 16.8678 77.2832 16.6074C77.8301 16.347 78.2923 15.9922 78.6699 15.543C79.054 15.0872 79.347 14.5566 79.5488 13.9512C79.7507 13.3392 79.8516 12.6882 79.8516 11.998ZM17.5566 38.9961C17.5566 39.556 17.4525 40.0801 17.2441 40.5684C17.0358 41.0501 16.7493 41.4733 16.3848 41.8379C16.0267 42.196 15.6035 42.4792 15.1152 42.6875C14.6335 42.8958 14.1159 43 13.5625 43H1.39453V40.998H13.5625C13.8424 40.998 14.1029 40.946 14.3438 40.8418C14.5846 40.7376 14.793 40.5944 14.9688 40.4121C15.151 40.2298 15.2943 40.0182 15.3984 39.7773C15.5026 39.5299 15.5547 39.2695 15.5547 38.9961C15.5547 38.7227 15.5026 38.4655 15.3984 38.2246C15.2943 37.9837 15.151 37.7721 14.9688 37.5898C14.793 37.4076 14.5846 37.2643 14.3438 37.1602C14.1029 37.056 13.8424 37.0039 13.5625 37.0039H5.39844C4.85156 37.0039 4.33398 36.8997 3.8457 36.6914C3.35742 36.4831 2.93099 36.1999 2.56641 35.8418C2.20833 35.4772 1.92188 35.0508 1.70703 34.5625C1.4987 34.0742 1.39453 33.5534 1.39453 33C1.39453 32.4531 1.4987 31.9355 1.70703 31.4473C1.92188 30.959 2.20833 30.5358 2.56641 30.1777C2.93099 29.8132 3.35742 29.5267 3.8457 29.3184C4.33398 29.1035 4.85156 28.9961 5.39844 28.9961H16.5605V30.998H5.39844C5.125 30.998 4.86458 31.0501 4.61719 31.1543C4.3763 31.2585 4.16471 31.4017 3.98242 31.584C3.80013 31.7663 3.6569 31.9811 3.55273 32.2285C3.44857 32.4694 3.39648 32.7266 3.39648 33C3.39648 33.2734 3.44857 33.5339 3.55273 33.7812C3.6569 34.0221 3.80013 34.2337 3.98242 34.416C4.16471 34.5983 4.3763 34.7415 4.61719 34.8457C4.86458 34.9499 5.125 35.002 5.39844 35.002H13.5625C14.1159 35.002 14.6335 35.1094 15.1152 35.3242C15.6035 35.5326 16.0267 35.819 16.3848 36.1836C16.7493 36.5417 17.0358 36.9648 17.2441 37.4531C17.4525 37.9349 17.5566 38.4492 17.5566 38.9961ZM33.2891 43H19.9102V28.9961H21.9121V40.998H33.2891V43ZM51.6484 35.998C51.6484 36.9681 51.4954 37.8796 51.1895 38.7324C50.8835 39.5853 50.4473 40.3275 49.8809 40.959C49.321 41.5905 48.6471 42.0885 47.8594 42.4531C47.0716 42.8177 46.196 43 45.2324 43H40.5742C39.6042 43 38.722 42.8177 37.9277 42.4531C37.1335 42.0885 36.4531 41.5905 35.8867 40.959C35.3268 40.3275 34.8939 39.5853 34.5879 38.7324C34.2819 37.8796 34.1289 36.9681 34.1289 35.998C34.1289 35.0345 34.2819 34.1296 34.5879 33.2832C34.8939 32.4303 35.3268 31.6882 35.8867 31.0566C36.4531 30.4186 37.1335 29.9173 37.9277 29.5527C38.722 29.1816 39.6042 28.9961 40.5742 28.9961H45.2324C46.196 28.9961 47.0716 29.1816 47.8594 29.5527C48.6471 29.9173 49.321 30.4186 49.8809 31.0566C50.4473 31.6882 50.8835 32.4303 51.1895 33.2832C51.4954 34.1296 51.6484 35.0345 51.6484 35.998ZM49.6465 35.998C49.6465 35.3079 49.5456 34.6602 49.3438 34.0547C49.1419 33.4492 48.849 32.9219 48.4648 32.4727C48.0872 32.0169 47.625 31.6589 47.0781 31.3984C46.5378 31.1315 45.9225 30.998 45.2324 30.998H40.5742C39.8841 30.998 39.2624 31.1315 38.709 31.3984C38.1621 31.6589 37.6966 32.0169 37.3125 32.4727C36.9349 32.9219 36.6419 33.4492 36.4336 34.0547C36.2318 34.6602 36.1309 35.3079 36.1309 35.998C36.1309 36.6882 36.2318 37.3392 36.4336 37.9512C36.6419 38.5566 36.9349 39.0872 37.3125 39.543C37.6966 39.9922 38.1621 40.347 38.709 40.6074C39.2624 40.8678 39.8841 40.998 40.5742 40.998H45.2324C45.9225 40.998 46.5378 40.8678 47.0781 40.6074C47.625 40.347 48.0872 39.9922 48.4648 39.543C48.849 39.0872 49.1419 38.5566 49.3438 37.9512C49.5456 37.3392 49.6465 36.6882 49.6465 35.998ZM69.4219 28.9961L62.0586 43H59.7734L52.4199 28.9961H54.6953L60.916 40.8418L67.1367 28.9961H69.4219ZM87.7031 35.998C87.7031 36.9681 87.5501 37.8796 87.2441 38.7324C86.9382 39.5853 86.502 40.3275 85.9355 40.959C85.3757 41.5905 84.7018 42.0885 83.9141 42.4531C83.1263 42.8177 82.2507 43 81.2871 43H76.6289C75.6589 43 74.7767 42.8177 73.9824 42.4531C73.1882 42.0885 72.5078 41.5905 71.9414 40.959C71.3815 40.3275 70.9486 39.5853 70.6426 38.7324C70.3366 37.8796 70.1836 36.9681 70.1836 35.998C70.1836 35.0345 70.3366 34.1296 70.6426 33.2832C70.9486 32.4303 71.3815 31.6882 71.9414 31.0566C72.5078 30.4186 73.1882 29.9173 73.9824 29.5527C74.7767 29.1816 75.6589 28.9961 76.6289 28.9961H81.2871C82.2507 28.9961 83.1263 29.1816 83.9141 29.5527C84.7018 29.9173 85.3757 30.4186 85.9355 31.0566C86.502 31.6882 86.9382 32.4303 87.2441 33.2832C87.5501 34.1296 87.7031 35.0345 87.7031 35.998ZM85.7012 35.998C85.7012 35.3079 85.6003 34.6602 85.3984 34.0547C85.1966 33.4492 84.9036 32.9219 84.5195 32.4727C84.1419 32.0169 83.6797 31.6589 83.1328 31.3984C82.5924 31.1315 81.9772 30.998 81.2871 30.998H76.6289C75.9388 30.998 75.3171 31.1315 74.7637 31.3984C74.2168 31.6589 73.7513 32.0169 73.3672 32.4727C72.9896 32.9219 72.6966 33.4492 72.4883 34.0547C72.2865 34.6602 72.1855 35.3079 72.1855 35.998C72.1855 36.6882 72.2865 37.3392 72.4883 37.9512C72.6966 38.5566 72.9896 39.0872 73.3672 39.543C73.7513 39.9922 74.2168 40.347 74.7637 40.6074C75.3171 40.8678 75.9388 40.998 76.6289 40.998H81.2871C81.9772 40.998 82.5924 40.8678 83.1328 40.6074C83.6797 40.347 84.1419 39.9922 84.5195 39.543C84.9036 39.0872 85.1966 38.5566 85.3984 37.9512C85.6003 37.3392 85.7012 36.6882 85.7012 35.998Z" fill="#279BA3"/>
</g>
<defs>
<filter id="filter0_d_1_23" x="-2.60547" y="4.99609" width="94.3086" height="46.0039" filterUnits="userSpaceOnUse" color-interpolation-filters="sRGB">
<feFlood flood-opacity="0" result="BackgroundImageFix"/>
<feColorMatrix in="SourceAlpha" type="matrix" values="0 0 0 0 0 0 0 0 0 0 0 0 0 0 0 0 0 0 127 0" result="hardAlpha"/>
<feOffset dy="4"/>
<feGaussianBlur stdDeviation="2"/>
<feComposite in2="hardAlpha" operator="out"/>
<feColorMatrix type="matrix" values="0 0 0 0 0 0 0 0 0 0 0 0 0 0 0 0 0 0 0.25 0"/>
<feBlend mode="normal" in2="BackgroundImageFix" result="effect1_dropShadow_1_23"/>
<feBlend mode="normal" in="SourceGraphic" in2="effect1_dropShadow_1_23" result="shape"/>
</filter>
</defs>
</svg>
