<svg width="664" height="88" viewBox="0 0 664 88" fill="none" xmlns="http://www.w3.org/2000/svg">
<path d="M43.1875 86V87H44.1875V86H43.1875ZM27.875 86H26.875V87H27.875V86ZM27.875 15.1875H28.875V14.1875H27.875V15.1875ZM0.875 15.1875H-0.125V16.1875H0.875V15.1875ZM0.875 2.375V1.375H-0.125V2.375H0.875ZM70.125 2.375H71.125V1.375H70.125V2.375ZM70.125 15.1875V16.1875H71.125V15.1875H70.125ZM43.1875 15.1875V14.1875H42.1875V15.1875H43.1875ZM43.1875 85H27.875V87H43.1875V85ZM28.875 86V15.1875H26.875V86H28.875ZM27.875 14.1875H0.875V16.1875H27.875V14.1875ZM1.875 15.1875V2.375H-0.125V15.1875H1.875ZM0.875 3.375H70.125V1.375H0.875V3.375ZM69.125 2.375V15.1875H71.125V2.375H69.125ZM70.125 14.1875H43.1875V16.1875H70.125V14.1875ZM42.1875 15.1875V86H44.1875V15.1875H42.1875ZM202.938 30.875L201.987 31.185L201.988 31.1881L202.938 30.875ZM162 21.3125L162.755 21.9684L162 21.3125ZM156.812 30.875L157.762 31.1881L157.763 31.185L156.812 30.875ZM156.812 57.5625L155.862 57.8725L155.863 57.8756L156.812 57.5625ZM162 67.0625L161.245 67.7184L161.251 67.7245L162 67.0625ZM169.875 72.75L169.484 73.6705L169.495 73.6749L169.875 72.75ZM189.875 72.75L190.255 73.675L190.266 73.6704L189.875 72.75ZM197.75 67.0625L198.499 67.7246L198.505 67.7184L197.75 67.0625ZM202.938 57.5625L203.887 57.8756L203.888 57.8725L202.938 57.5625ZM217.875 61.75L216.929 61.4249L216.928 61.4293L217.875 61.75ZM209.938 75.4375L209.199 74.7632L209.195 74.7676L209.938 75.4375ZM197.125 84.375L196.739 83.4524L196.737 83.4535L197.125 84.375ZM162.562 84.375L162.174 85.2965L162.177 85.2976L162.562 84.375ZM149.75 75.4375L149.007 76.1074L149.012 76.1118L149.75 75.4375ZM141.812 61.75L140.865 62.0685L140.868 62.0774L141.812 61.75ZM141.812 26.6875L140.867 26.3624L140.865 26.3668L141.812 26.6875ZM149.75 12.9375L149.012 12.2632L149.008 12.2676L149.75 12.9375ZM162.562 4L162.177 3.07737L162.174 3.07851L162.562 4ZM197.125 4L196.737 4.9215L196.739 4.92263L197.125 4ZM209.938 12.9375L209.195 13.6074L209.199 13.6118L209.938 12.9375ZM217.875 26.6875L216.927 27.006L216.93 27.0149L217.875 26.6875ZM205.812 44.1875C205.812 39.0254 205.178 34.4779 203.887 30.5619L201.988 31.1881C203.197 34.8555 203.812 39.1829 203.812 44.1875H205.812ZM203.888 30.565C202.605 26.629 200.817 23.3172 198.505 20.6566L196.995 21.9684C199.1 24.3911 200.77 27.4543 201.987 31.185L203.888 30.565ZM198.505 20.6566C196.197 18.0002 193.444 16.0108 190.255 14.7001L189.495 16.5499C192.389 17.7392 194.887 19.5415 196.995 21.9684L198.505 20.6566ZM190.255 14.7001C187.081 13.3957 183.617 12.75 179.875 12.75V14.75C183.383 14.75 186.586 15.3543 189.495 16.5499L190.255 14.7001ZM179.875 12.75C176.133 12.75 172.669 13.3957 169.495 14.7001L170.255 16.5499C173.164 15.3543 176.367 14.75 179.875 14.75V12.75ZM169.495 14.7001C166.306 16.0108 163.553 18.0002 161.245 20.6566L162.755 21.9684C164.863 19.5415 167.361 17.7392 170.255 16.5499L169.495 14.7001ZM161.245 20.6566C158.933 23.3172 157.145 26.629 155.862 30.565L157.763 31.185C158.98 27.4543 160.65 24.3911 162.755 21.9684L161.245 20.6566ZM155.863 30.5619C154.572 34.4779 153.938 39.0254 153.938 44.1875H155.938C155.938 39.1829 156.553 34.8555 157.762 31.1881L155.863 30.5619ZM153.938 44.1875C153.938 49.35 154.572 53.9169 155.862 57.8725L157.763 57.2525C156.553 53.5414 155.938 49.1917 155.938 44.1875H153.938ZM155.863 57.8756C157.147 61.7703 158.935 65.0597 161.245 67.7184L162.755 66.4066C160.648 63.982 158.978 60.938 157.762 57.2494L155.863 57.8756ZM161.251 67.7245C163.557 70.3353 166.304 72.3199 169.484 73.6704L170.266 71.8296C167.363 70.5968 164.86 68.7897 162.749 66.4005L161.251 67.7245ZM169.495 73.6749C172.669 74.9793 176.133 75.625 179.875 75.625V73.625C176.367 73.625 173.164 73.0207 170.255 71.8251L169.495 73.6749ZM179.875 75.625C183.617 75.625 187.081 74.9793 190.255 73.6749L189.495 71.8251C186.586 73.0207 183.383 73.625 179.875 73.625V75.625ZM190.266 73.6704C193.446 72.3199 196.193 70.3353 198.499 67.7245L197.001 66.4005C194.89 68.7897 192.387 70.5968 189.484 71.8296L190.266 73.6704ZM198.505 67.7184C200.815 65.0597 202.603 61.7703 203.887 57.8756L201.988 57.2494C200.772 60.938 199.102 63.982 196.995 66.4066L198.505 67.7184ZM203.888 57.8725C205.178 53.9169 205.812 49.35 205.812 44.1875H203.812C203.812 49.1917 203.197 53.5414 201.987 57.2525L203.888 57.8725ZM219.625 44.1875C219.625 50.4661 218.722 56.2089 216.929 61.4249L218.821 62.0751C220.694 56.6245 221.625 50.6589 221.625 44.1875H219.625ZM216.928 61.4293C215.177 66.6001 212.599 71.0397 209.199 74.7632L210.676 76.1118C214.276 72.1687 216.99 67.4833 218.822 62.0707L216.928 61.4293ZM209.195 74.7676C205.842 78.4842 201.696 81.3804 196.739 83.4524L197.511 85.2976C202.721 83.1196 207.116 80.0575 210.68 76.1074L209.195 74.7676ZM196.737 83.4535C191.838 85.5182 186.224 86.5625 179.875 86.5625V88.5625C186.443 88.5625 192.329 87.4818 197.513 85.2965L196.737 83.4535ZM179.875 86.5625C173.527 86.5625 167.89 85.5183 162.948 83.4524L162.177 85.2976C167.401 87.4817 173.307 88.5625 179.875 88.5625V86.5625ZM162.951 83.4535C158.035 81.3815 153.886 78.4841 150.488 74.7632L149.012 76.1118C152.614 80.0576 157.007 83.1185 162.174 85.2965L162.951 83.4535ZM150.492 74.7676C147.131 71.0419 144.551 66.5986 142.757 61.4226L140.868 62.0774C142.741 67.4848 145.452 72.1664 149.008 76.1074L150.492 74.7676ZM142.76 61.4316C141.008 56.2135 140.125 50.4684 140.125 44.1875H138.125C138.125 50.6566 139.034 56.6198 140.865 62.0684L142.76 61.4316ZM140.125 44.1875C140.125 37.9064 141.008 32.1831 142.76 27.0082L140.865 26.3668C139.034 31.7752 138.125 37.7186 138.125 44.1875H140.125ZM142.758 27.0126C144.552 21.7948 147.132 17.3317 150.492 13.6074L149.008 12.2676C145.451 16.2099 142.74 20.9135 140.867 26.3624L142.758 27.0126ZM150.488 13.6118C153.886 9.89092 158.035 6.99345 162.951 4.92149L162.174 3.07851C157.007 5.25655 152.614 8.31742 149.012 12.2632L150.488 13.6118ZM162.948 4.92263C167.89 2.85671 173.527 1.8125 179.875 1.8125V-0.1875C173.307 -0.1875 167.401 0.89329 162.177 3.07737L162.948 4.92263ZM179.875 1.8125C186.224 1.8125 191.838 2.85678 196.737 4.92149L197.513 3.07851C192.329 0.893223 186.443 -0.1875 179.875 -0.1875V1.8125ZM196.739 4.92263C201.696 6.99462 205.842 9.89084 209.195 13.6074L210.68 12.2676C207.116 8.3175 202.721 5.25538 197.511 3.07737L196.739 4.92263ZM209.199 13.6118C212.598 17.334 215.176 21.7933 216.927 27.0059L218.823 26.3691C216.991 20.915 214.277 16.2077 210.676 12.2632L209.199 13.6118ZM216.93 27.0149C218.722 32.1878 219.625 37.9087 219.625 44.1875H221.625C221.625 37.7163 220.694 31.7706 218.82 26.3601L216.93 27.0149ZM300.875 86H299.875V87H300.875V86ZM300.875 2.375V1.375H299.875V2.375H300.875ZM328.938 2.5625L328.875 3.56055L328.876 3.56063L328.938 2.5625ZM340.438 4.0625L340.233 5.04129L340.244 5.04358L340.255 5.04563L340.438 4.0625ZM345.375 5.3125L345.059 6.26128L345.072 6.26554L345.375 5.3125ZM357.188 11.0625L356.61 11.8789L357.188 11.0625ZM365.75 19.625L364.929 20.1964L364.934 20.2033L365.75 19.625ZM371 30.6875L370.038 30.9622L370.042 30.9739L371 30.6875ZM371.312 56.5625L372.281 56.8099L372.282 56.8074L371.312 56.5625ZM359 75.9375L359.623 76.7194L359.625 76.7184L359 75.9375ZM348 82L347.651 81.0629L347.648 81.0641L348 82ZM343.5 69.5L343.938 70.3989L343.944 70.3961L343.5 69.5ZM353.625 59.875L352.747 59.3968L353.625 59.875ZM352.688 27.1875L351.85 27.7348L351.855 27.7422L352.688 27.1875ZM347.5 21.625L346.889 22.417L346.897 22.423L347.5 21.625ZM340.688 17.8125L341.054 16.8819L341.048 16.8796L340.688 17.8125ZM316.188 15.1875V14.1875H315.188V15.1875H316.188ZM316.188 73.1875H315.188V74.1875H316.188V73.1875ZM301.875 86V2.375H299.875V86H301.875ZM300.875 3.375H323V1.375H300.875V3.375ZM323 3.375C324.937 3.375 326.895 3.43682 328.875 3.56055L329 1.56445C326.98 1.43818 324.98 1.375 323 1.375V3.375ZM328.876 3.56063C330.897 3.68431 332.853 3.86972 334.746 4.1166L335.004 2.1334C333.064 1.88028 331.062 1.69069 328.999 1.56437L328.876 3.56063ZM334.746 4.1166C336.638 4.36348 338.467 4.6718 340.233 5.04129L340.642 3.08371C338.824 2.7032 336.945 2.38652 335.004 2.1334L334.746 4.1166ZM340.255 5.04563C342.008 5.3718 343.608 5.77771 345.059 6.26118L345.691 4.36382C344.142 3.84729 342.451 3.41987 340.62 3.07937L340.255 5.04563ZM345.072 6.26554C349.444 7.65469 353.287 9.52818 356.61 11.8789L357.765 10.2461C354.255 7.76348 350.223 5.80365 345.678 4.35946L345.072 6.26554ZM356.61 11.8789C359.936 14.2316 362.707 17.004 364.929 20.1964L366.571 19.0536C364.21 15.6627 361.272 12.7268 357.765 10.2461L356.61 11.8789ZM364.934 20.2033C367.199 23.398 368.901 26.9818 370.038 30.9622L371.962 30.4128C370.765 26.2265 368.968 22.4354 366.566 19.0467L364.934 20.2033ZM370.042 30.9739C371.219 34.9118 371.812 39.21 371.812 43.875H373.812C373.812 39.04 373.197 34.5465 371.958 30.4011L370.042 30.9739ZM371.812 43.875C371.812 48.3007 371.321 52.447 370.343 56.3176L372.282 56.8074C373.304 52.7613 373.812 48.4493 373.812 43.875H371.812ZM370.344 56.3151C369.368 60.1365 367.887 63.6231 365.903 66.7806L367.597 67.8444C369.697 64.5019 371.257 60.8218 372.281 56.8099L370.344 56.3151ZM365.903 66.7806C363.924 69.9317 361.417 72.7236 358.375 75.1566L359.625 76.7184C362.833 74.1514 365.493 71.1933 367.597 67.8444L365.903 66.7806ZM358.377 75.1556C355.387 77.539 351.816 79.5111 347.651 81.0629L348.349 82.9371C352.684 81.3223 356.446 79.2527 359.623 76.7194L358.377 75.1556ZM347.648 81.0641C344.184 82.368 340.234 83.3525 335.791 84.0108L336.084 85.9892C340.641 85.3141 344.732 84.2987 348.352 82.9359L347.648 81.0641ZM335.791 84.0108C331.349 84.6688 326.337 85 320.75 85V87C326.413 87 331.526 86.6645 336.084 85.9892L335.791 84.0108ZM320.75 85H300.875V87H320.75V85ZM322.5 74.1875C331.529 74.1875 338.702 72.9519 343.938 70.3988L343.062 68.6012C338.214 70.9648 331.387 72.1875 322.5 72.1875V74.1875ZM343.944 70.3961C348.579 68.1002 352.109 64.7494 354.503 60.3532L352.747 59.3968C350.557 63.4172 347.338 66.4831 343.056 68.6039L343.944 70.3961ZM354.503 60.3532C356.899 55.9544 358.062 50.4005 358.062 43.75H356.062C356.062 50.1828 354.935 55.379 352.747 59.3968L354.503 60.3532ZM358.062 43.75C358.062 40.2615 357.68 37.0876 356.902 34.2369L354.973 34.7631C355.695 37.4124 356.062 40.4052 356.062 43.75H358.062ZM356.902 34.2369C356.127 31.3951 355.002 28.857 353.52 26.6328L351.855 27.7422C353.206 29.768 354.248 32.1049 354.973 34.7631L356.902 34.2369ZM353.524 26.6403C352.045 24.3783 350.237 22.4389 348.103 20.827L346.897 22.423C348.846 23.8944 350.496 25.6634 351.851 27.7347L353.524 26.6403ZM348.111 20.833C346.03 19.2294 343.676 17.9136 341.054 16.8819L340.321 18.7431C342.783 19.7114 344.97 20.9373 346.889 22.417L348.111 20.833ZM341.048 16.8796C338.592 15.9318 335.871 15.2483 332.891 14.8226L332.609 16.8024C335.462 17.2101 338.033 17.8598 340.327 18.7454L341.048 16.8796ZM332.891 14.8226C329.919 14.3979 326.6 14.1875 322.938 14.1875V16.1875C326.525 16.1875 329.748 16.3938 332.609 16.8024L332.891 14.8226ZM322.938 14.1875H316.188V16.1875H322.938V14.1875ZM315.188 15.1875V73.1875H317.188V15.1875H315.188ZM316.188 74.1875H322.5V72.1875H316.188V74.1875ZM501 64.6875L501.933 64.3289L501.687 63.6875H501V64.6875ZM469.5 64.6875V63.6875H468.813L468.567 64.3289L469.5 64.6875ZM461.312 86V87H462L462.246 86.3586L461.312 86ZM445 86L444.071 85.6311L443.527 87H445V86ZM478.188 2.375V1.375H477.508L477.258 2.00613L478.188 2.375ZM492.188 2.375L493.117 2.00613L492.867 1.375H492.188V2.375ZM525.375 86V87H526.848L526.304 85.6311L525.375 86ZM509.188 86L508.254 86.3586L508.5 87H509.188V86ZM485.125 22.5V21.5H484.404L484.176 22.1838L485.125 22.5ZM477.312 44.4375L476.381 44.0741L476.38 44.0769L477.312 44.4375ZM474.438 51.875L473.505 51.5144L472.979 52.875H474.438V51.875ZM496.062 51.875V52.875H497.521L496.995 51.5144L496.062 51.875ZM493.188 44.4375L494.12 44.0769L494.12 44.0763L493.188 44.4375ZM485.375 22.5L486.323 22.1824L486.095 21.5H485.375V22.5ZM501 63.6875H469.5V65.6875H501V63.6875ZM468.567 64.3289L460.379 85.6414L462.246 86.3586L470.433 65.0461L468.567 64.3289ZM461.312 85H445V87H461.312V85ZM445.929 86.3689L479.117 2.74387L477.258 2.00613L444.071 85.6311L445.929 86.3689ZM478.188 3.375H492.188V1.375H478.188V3.375ZM491.258 2.74387L524.446 86.3689L526.304 85.6311L493.117 2.00613L491.258 2.74387ZM525.375 85H509.188V87H525.375V85ZM510.121 85.6414L501.933 64.3289L500.067 65.0461L508.254 86.3586L510.121 85.6414ZM484.176 22.1838C481.263 30.9244 478.664 38.22 476.381 44.0741L478.244 44.8009C480.544 38.905 483.154 31.5756 486.074 22.8162L484.176 22.1838ZM476.38 44.0769L473.505 51.5144L475.37 52.2356L478.245 44.7981L476.38 44.0769ZM474.438 52.875H496.062V50.875H474.438V52.875ZM496.995 51.5144L494.12 44.0769L492.255 44.7981L495.13 52.2356L496.995 51.5144ZM494.12 44.0763C491.836 38.1788 489.237 30.8819 486.323 22.1824L484.427 22.8176C487.346 31.5347 489.956 38.8628 492.255 44.7987L494.12 44.0763ZM485.375 21.5H485.125V23.5H485.375V21.5ZM624.438 38.375V39.375H624.995L625.288 38.9007L624.438 38.375ZM646.688 2.375V1.375H646.13L645.837 1.84926L646.688 2.375ZM663.688 2.375L664.532 2.91078L665.506 1.375H663.688V2.375ZM632 52.3125L631.156 51.7767L631 52.022V52.3125H632ZM632 86V87H633V86H632ZM616.688 86H615.688V87H616.688V86ZM616.688 52.3125H617.688V52.022L617.532 51.7767L616.688 52.3125ZM585 2.375V1.375H583.181L584.156 2.91078L585 2.375ZM602 2.375L602.851 1.84926L602.558 1.375H602V2.375ZM624.25 38.375L623.399 38.9007L623.692 39.375H624.25V38.375ZM625.288 38.9007L647.538 2.90074L645.837 1.84926L623.587 37.8493L625.288 38.9007ZM646.688 3.375H663.688V1.375H646.688V3.375ZM662.843 1.83922L631.156 51.7767L632.844 52.8483L664.532 2.91078L662.843 1.83922ZM631 52.3125V86H633V52.3125H631ZM632 85H616.688V87H632V85ZM617.688 86V52.3125H615.688V86H617.688ZM617.532 51.7767L585.844 1.83922L584.156 2.91078L615.843 52.8483L617.532 51.7767ZM585 3.375H602V1.375H585V3.375ZM601.149 2.90074L623.399 38.9007L625.101 37.8493L602.851 1.84926L601.149 2.90074ZM624.25 39.375H624.438V37.375H624.25V39.375Z" fill="#279BA3"/>
</svg>
